<?xml version="1.0" encoding="utf-8"?>
<!-- Generator: Adobe Illustrator 26.0.0, SVG Export Plug-In . SVG Version: 6.00 Build 0)  -->
<svg version="1.1" id="Layer_2" xmlns="http://www.w3.org/2000/svg" xmlns:xlink="http://www.w3.org/1999/xlink" x="0px" y="0px"
	 viewBox="0 0 269 436" style="enable-background:new 0 0 269 436;" xml:space="preserve">
<style type="text/css">
	.st0{fill:none;stroke:#FFFFFF;stroke-width:7;stroke-miterlimit:10;}
</style>
<path class="st0" d="M241.5,177.5c-4.7-21.8-13.1-46.2-27-68.1"/>
<path class="st0" d="M174.5,96.5L61,105c-47,44-91,260,27,284c1,31,37,56,59,25c77-25,95-88,99-138c1.9-24.2,3.6-53-0.7-83.3"/>
<path class="st0" d="M60.6,102.6l-6.2-38.9c-1.1-7.2-10.1-9.7-14.9-4.2l-1,1.2c-3.2,3.8-9,4-12.5,0.5l-4-4
	c-3.1-3.1-3.3-8.1-0.6-11.4L36.6,27c1.4-1.7,3.3-2.7,5.4-3L146,9.3c3.4-0.5,6.7,1.1,8.5,4l49.5,80.6c0.1,0.1,0.1,0.2,0.2,0.3
	l29.1,77.2c0.4,4.2-2.6,5.2-5.6,2.7l-49.2-76.3c-0.5-0.8-1.5-1.2-2.4-1.2l-112.5,8.2C62.1,104.9,60.8,103.9,60.6,102.6z"/>
<path class="st0" d="M204.9,95.1c30.8,2,55.1,27.6,55.1,58.9c0,32.6-26.4,59-59,59s-59-26.4-59-59c0-24.9,15.5-46.2,37.3-54.9"/>
<path class="st0" d="M210.3,108.5c21.3,4.5,37.2,23.4,37.2,46c0,26-21,47-47,47s-47-21-47-47c0-21.1,13.9-38.9,33-44.9"/>
</svg>
