<?xml version="1.0" encoding="utf-8"?>
<!-- Generator: Adobe Illustrator 26.0.0, SVG Export Plug-In . SVG Version: 6.00 Build 0)  -->
<svg version="1.1" id="Layer_2" xmlns="http://www.w3.org/2000/svg" xmlns:xlink="http://www.w3.org/1999/xlink" x="0px" y="0px"
	 viewBox="0 0 257 433" style="enable-background:new 0 0 257 433;" xml:space="preserve">
<style type="text/css">
	.st0{fill:#FCE400;}
	.st1{fill:none;stroke:#8E8B91;stroke-width:13;stroke-miterlimit:10;}
	.st2{fill:#373737;}
</style>
<path class="st0" d="M56,102c-73,81-64,263,24,285c14,33,34,55,62,24c45-16,84-49,95-108s9-159-39-210C199,94,56,102,56,102z"/>
<circle class="st1" cx="195" cy="152" r="51.5"/>
<path class="st2" d="M172.5,95.5l-110.2,9.7c-2.2,0.2-4.1-1.3-4.5-3.4L49,50.1c-0.6-3.5-4.9-4.7-7.2-2L28.5,63
	c-1.6,1.8-4.5,1.9-6.2,0.1l-8.5-9.1c-1.4-1.5-1.5-3.7-0.3-5.3l17.9-23.8c0.7-0.9,1.6-1.5,2.7-1.6L143.7,6.9c1.7-0.2,3.3,0.5,4.2,2
	L190,79.3c5.7,9.5,10.9,19.3,15.5,29.3l27.6,59.1c0.8,1.7,0.4,3.7-0.9,5l0,0c-2,2-5.2,1.7-6.8-0.6L172.5,95.5z"/>
</svg>
